<!-- OPSI A: Logo lengkap dengan frame emas + paus + kail -->
<svg viewBox="0 0 260 260" xmlns="http://www.w3.org/2000/svg">
  <defs>
    <linearGradient id="ng" x1="0%" y1="0%" x2="100%" y2="100%">
      <stop offset="0%" style="stop-color:#FFE9A0"/>
      <stop offset="50%" style="stop-color:#F5C842"/>
      <stop offset="100%" style="stop-color:#D4A830"/>
    </linearGradient>
    <linearGradient id="ngv" x1="0%" y1="0%" x2="0%" y2="100%">
      <stop offset="0%" style="stop-color:#FFE9A0"/>
      <stop offset="100%" style="stop-color:#D4A830"/>
    </linearGradient>
    <linearGradient id="nnb" x1="0%" y1="0%" x2="100%" y2="100%">
      <stop offset="0%" style="stop-color:#1A2F48"/>
      <stop offset="100%" style="stop-color:#0A1825"/>
    </linearGradient>
  </defs>
  <rect x="1" y="1" width="258" height="258" rx="3" fill="url(#nnb)" stroke="url(#ng)" stroke-width="2.5"/>
  <rect x="9" y="9" width="242" height="242" rx="1.5" fill="none" stroke="url(#ng)" stroke-width="0.7" stroke-opacity="0.4"/>
  <g transform="translate(66,89) scale(0.576)">
    <path d="M 0 79 C 5 62,19 52,38 48 C 58 44,85 43,112 45 C 136 47,156 52,170 60 C 180 67,185 74,187 79 C 185 84,180 91,170 98 C 156 106,136 111,112 113 C 85 115,58 114,38 110 C 19 106,5 96,0 79 Z"
      fill="none" stroke="url(#ng)" stroke-width="6" stroke-linejoin="round"/>
    <path d="M 187 79 C 196 79,202 80,206 81" fill="none" stroke="url(#ng)" stroke-width="6" stroke-linecap="round"/>
    <path d="M 187 79 C 196 79,202 78,206 77" fill="none" stroke="url(#ng)" stroke-width="6" stroke-linecap="round"/>
    <path d="M 206 77 C 210 71,214 63,220 54 C 223 48,224 45,222 49 C 219 55,214 65,210 76" fill="none" stroke="url(#ng)" stroke-width="5" stroke-linecap="round" stroke-linejoin="round"/>
    <path d="M 206 81 C 210 87,214 95,220 104 C 223 110,224 113,222 109 C 219 103,214 93,210 82" fill="none" stroke="url(#ng)" stroke-width="5" stroke-linecap="round" stroke-linejoin="round"/>
    <path d="M 210 76 C 207 79,207 79,210 82" fill="none" stroke="url(#ng)" stroke-width="4" stroke-linecap="round"/>
    <path d="M 28 48 C 23 37,21 24,25 13" fill="none" stroke="url(#ng)" stroke-width="4.5" stroke-linecap="round"/>
    <path d="M 34 46 C 30 35,29 22,35 11" fill="none" stroke="url(#ng)" stroke-width="4.5" stroke-linecap="round"/>
    <circle cx="15" cy="76" r="6" fill="url(#ngv)"/>
    <circle cx="14" cy="75" r="2.5" fill="#0A1825"/>
    <path d="M 0 79 C 5 91,19 101,38 104" fill="none" stroke="url(#ng)" stroke-width="2.8" stroke-linecap="round" stroke-opacity="0.55"/>
    <g transform="translate(38,106)">
      <path d="M 4 -6 C 0 2,-6 12,-10 20 C -14 28,-14 34,-8 34 C 0 34,10 24,14 12 C 18 0,12 -10,4 -6 Z"
        fill="none" stroke="url(#ng)" stroke-width="4.5" stroke-linejoin="round" transform="rotate(-55,0,0)"/>
    </g>
  </g>
</svg>
